<?xml version="1.0" encoding="UTF-8"?> <!-- Generator: Adobe Illustrator 23.1.0, SVG Export Plug-In . SVG Version: 6.00 Build 0) --> <svg xmlns="http://www.w3.org/2000/svg" xmlns:xlink="http://www.w3.org/1999/xlink" id="Layer_1" x="0px" y="0px" viewBox="0 0 150 150" style="enable-background:new 0 0 150 150;" xml:space="preserve"> <style type="text/css"> .st0{display:none;} .st1{display:inline;fill:#EEA772;} .st2{display:inline;} .st3{fill:#EEA772;} </style> <g class="st0"> <path class="st1" d="M109.5,38h-4v4h2v74h-57v-4h51c1.1,0,2-0.9,2-2V44v-8v-4c0-1.1-0.9-2-2-2h-61c-1.1,0-2,0.9-2,2v78 c0,1.1,0.9,2,2,2h6v6c0,1.1,0.9,2,2,2h61c1.1,0,2-0.9,2-2V40C111.5,38.9,110.6,38,109.5,38z M42.5,34h57v74h-57V34z"></path> <rect x="51.4" y="46.3" class="st1" width="38.1" height="4"></rect> <rect x="51.4" y="59.4" class="st1" width="38.1" height="4"></rect> <rect x="51.4" y="72.4" class="st1" width="38.1" height="4"></rect> <rect x="51.4" y="85.5" class="st1" width="32.1" height="4"></rect> </g> <g class="st0"> <g class="st2"> <path class="st3" d="M82.2,66.4h10.9c7.9,0,14.2-6.3,14.2-14.3V40.5c0-7.9-6.3-14.2-14.2-14.2H56.9c-7.9,0-14.2,6.3-14.2,14.2V52 c0,7.9,6.3,14.3,14.2,14.3h8.3c-0.3,2.9-0.9,7.9-1.2,10.5c-0.2,0.6,0.2,1.1,0.5,1.5s0.9,0.6,1.4,0.6l0,0 C66,79,77.5,78.4,82.2,66.4z M68.1,74.8c0.6-4.2,1.1-9.9,1.1-10.2c0-0.6-0.2-1.1-0.5-1.5c-0.3-0.5-0.9-0.6-1.4-0.6H56.9 c-5.7,0-10.3-4.6-10.3-10.5V40.5c0-5.7,4.6-10.5,10.3-10.5h36.2c5.7,0,10.5,4.6,10.5,10.5V52c0,5.7-4.6,10.5-10.5,10.5H80.8 c-0.8,0-1.5,0.6-1.8,1.4C76.5,71.5,71.2,73.9,68.1,74.8z"></path> <path class="st3" d="M94.9,52.4c0-1.1-0.9-1.8-1.8-1.8H57.4c-1.1,0-1.8,0.9-1.8,1.8c0,0.9,0.9,1.8,1.8,1.8h35.6 C94,54.2,94.9,53.4,94.9,52.4z"></path> <path class="st3" d="M57.4,43.4h25.1c1.1,0,1.8-0.9,1.8-1.8c0-1.1-0.9-1.8-1.8-1.8H57.4c-1.1,0-1.8,0.9-1.8,1.8 C55.4,42.5,56.3,43.4,57.4,43.4z"></path> </g> <g class="st2"> <path class="st3" d="M58.2,83.5c0-6-4.8-10.8-10.8-10.8s-10.8,4.8-10.8,10.8c0,6,4.8,10.8,10.8,10.8 C53.3,94.1,58.2,89.3,58.2,83.5z M47.4,76.5c3.9,0,6.9,3.1,6.9,6.9s-3.1,6.9-6.9,6.9s-6.9-3.1-6.9-6.9S43.6,76.5,47.4,76.5z"></path> <path class="st3" d="M45.9,97.6c-9.1,0-16.6,7.4-16.6,16.6v7.5c0,1.1,0.9,1.8,1.8,1.8c1.1,0,1.8-0.9,1.8-1.8v-7.5 c0-7.1,5.7-12.8,12.8-12.8s12.8,5.7,12.8,12.8v7.5c0,1.1,0.9,1.8,1.8,1.8s1.8-0.9,1.8-1.8v-7.5C62.5,105,55,97.6,45.9,97.6z"></path> </g> <g class="st2"> <path class="st3" d="M102.6,94.3c6,0,10.8-4.8,10.8-10.8c0-6-4.8-10.8-10.8-10.8s-10.8,4.8-10.8,10.8 C91.8,89.3,96.7,94.1,102.6,94.3z M109.5,83.5c0,3.9-3.1,6.9-6.9,6.9c-3.9,0-6.9-3.1-6.9-6.9s3.1-6.9,6.9-6.9 C106.4,76.5,109.5,79.6,109.5,83.5z"></path> <path class="st3" d="M87.8,114.3v7.5c0,0.9,0.9,1.8,1.8,1.8s1.8-0.8,1.8-1.8v-7.5c0-7.1,5.7-12.8,12.8-12.8 c7.1,0,12.8,5.7,12.8,12.8v7.5c0,0.9,0.8,1.8,1.8,1.8c0.9,0,1.8-0.8,1.8-1.8v-7.5c0-9.2-7.5-16.6-16.6-16.6S87.5,105,87.8,114.3z"></path> </g> </g> <g transform="translate(0,-952.36218)"> <path class="st3" d="M55,983.4c-3.3,0-6,2.7-6,6v4H37c-2.2,0-4,1.8-4,4v70c0,2.2,1.8,4,4,4h76c2.2,0,4-1.8,4-4v-70c0-2.2-1.8-4-4-4 h-12v-4c0-3.3-2.7-6-6-6s-6,2.7-6,6v4H61v-4C61,986.1,58.3,983.4,55,983.4z M55,987.4c1.1,0,2,0.9,2,2v12c0,1.1-0.9,2-2,2 s-2-0.9-2-2v-12C53,988.2,53.9,987.4,55,987.4z M95,987.4c1.1,0,2,0.9,2,2v12c0,1.1-0.9,2-2,2s-2-0.9-2-2v-12 C93,988.2,93.9,987.4,95,987.4z M37,997.4h12v4c0,3.3,2.7,6,6,6s6-2.7,6-6v-4h28v4c0,3.3,2.7,6,6,6s6-2.7,6-6v-4h12v18H37V997.4z M37,1019.4h76v48H37V1019.4z M74.8,1025.4c-9.8,0-17.8,7.8-17.8,17.1c0,1.1,0.9,1.9,2,1.9c1.1,0,2-0.9,2-1.9 c0-7,6.1-13.1,13.8-13.1c4.7,0,8.9,2.4,11.4,6H85c-1.1,0-2,0.9-2,2c0,1.1,0.9,2,2,2h6c1.1,0,2-0.9,2-2v-6c0-1.1-0.9-2-2-2 c-1.1,0-2,0.9-2,2v1C85.7,1028.1,80.6,1025.4,74.8,1025.4z M91,1042.4c-1.1,0-2,0.9-2,1.9c0,7-6.1,13.1-13.8,13.1 c-4.7,0-8.9-2.4-11.4-6H65c1.1,0,2-0.9,2-2c0-1.1-0.9-2-2-2h-6c-1.1,0-2,0.9-2,2v6c0,1.1,0.9,2,2,2c1.1,0,2-0.9,2-2v-1 c3.3,4.3,8.4,7,14.2,7c9.8,0,17.8-7.8,17.8-17.1C93,1043.2,92.1,1042.4,91,1042.4z"></path> </g> <g class="st0"> <path class="st1" d="M76.7,95.2c2,0.4,4.1,0.6,6.2,0.6c4.2,0,8.4-0.8,12.3-2.3l7.1,16c1.4,3.1,4,5.4,7.3,6.3 c0.3,0.1,0.7,0.2,1.1,0.2c0.7,0.1,1.3,0.2,2,0.2c6.3,0,11.3-5.1,11.3-11.4c0-3-1.2-5.9-3.4-8.1l-12.4-12.3 c12.5-14,11.4-35.5-2.6-48S70,25,57.5,39s-11.4,35.5,2.6,48C64.8,91.2,70.6,94,76.7,95.2z M119,105.3c-0.3,3.5-3.4,6.1-6.9,5.8 c-0.2,0-0.4,0-0.6-0.1l-0.6-0.1c-1.8-0.5-3.3-1.8-4.1-3.6l-7.1-16.1c0.8-0.5,1.7-1,2.5-1.6l0,0c0.8-0.6,1.6-1.2,2.4-1.8l12.6,12.4 C118.5,101.5,119.2,103.4,119,105.3z M54.3,56.5c2.5-13.8,14.5-23.8,28.5-23.9c1.8,0,3.5,0.2,5.2,0.5c15.8,2.9,26.2,18,23.3,33.7 s-18,26.2-33.7,23.3C61.9,87.3,51.4,72.3,54.3,56.5z"></path> <path class="st1" d="M47.2,121.6c0.5,0.5,1.1,0.7,1.8,0.7h35.9c3.9,0,7-3.1,7-7l0,0v-9.8c0-1.4-1.1-2.5-2.5-2.5s-2.5,1.1-2.5,2.5 v9.8c0,1.1-0.9,2-2,2H52.6v-15.7c0-3.2-2.6-5.8-5.8-5.8H31V43.6c0-1.1,0.9-2,2-2h10.8c1.4,0,2.5-1.1,2.5-2.5s-1.1-2.5-2.5-2.5H33 c-3.9,0-7,3.1-7,7v55.8c0,0.7,0.3,1.3,0.7,1.8L47.2,121.6z M47.7,101.6V115l-14.3-14.3h13.4C47.3,100.7,47.7,101.1,47.7,101.6 L47.7,101.6L47.7,101.6z"></path> <circle class="st1" cx="87.9" cy="61.7" r="2.5"></circle> <circle class="st1" cx="67.5" cy="61.7" r="2.5"></circle> <circle class="st1" cx="98.2" cy="61.7" r="2.5"></circle> <circle class="st1" cx="77.7" cy="61.7" r="2.5"></circle> </g> </svg> 